PathFileType	4	(X/Y/Z)	C:\Users\ebm\Documents\Erivelton\Erivelton\propulsion2.trc
DataRate	CameraRate	NumFrames	NumMarkers	Units	OrigDataRate	OrigDataStartFrame	OrigNumFrames
150.00	150.00	      94	28	mm	150.00	946	      1261
Frame#	Time	IJ			PX			C7			T8			RAC			RAS			RPS			RAI			RPI			RLE			RME			RRS			RUS			R3M			R5M			LAC			LAS			LPS			LAI			LPI			LLE			LME			LRS			LUS			L3M			L5M			RW			LW			V_mid_elbow_r			V_mid_elbow_l			V_mid_wrist_r			V_mid_wrist_l			V_mid_trunk_low			V_mid_trunk_upp			
		X1	Y1	Z1	X2	Y2	Z2	X3	Y3	Z3	X4	Y4	Z4	X5	Y5	Z5	X6	Y6	Z6	X7	Y7	Z7	X8	Y8	Z8	X9	Y9	Z9	X10	Y10	Z10	X11	Y11	Z11	X12	Y12	Z12	X13	Y13	Z13	X14	Y14	Z14	X15	Y15	Z15	X16	Y16	Z16	X17	Y17	Z17	X18	Y18	Z18	X19	Y19	Z19	X20	Y20	Z20	X21	Y21	Z21	X22	Y22	Z22	X23	Y23	Z23	X24	Y24	Z24	X25	Y25	Z25	X26	Y26	Z26	X27	Y27	Z27	X28	Y28	Z28	

946	6.300																												4697.80859	800.76196	323.13705																			4773.99609	883.92615	-291.77316				4767.70068	806.81781	-324.18011																												
947	6.307																												4708.97852	799.58972	323.24033																			4783.43311	884.21924	-292.95920				4777.27588	807.03076	-325.31482																												
948	6.313																												4719.86084	798.53058	323.17041																			4792.36279	884.52539	-294.27338				4787.04834	808.40808	-327.25607																												
949	6.320																												4731.19531	797.93127	323.01263																			4801.15576	885.01025	-295.43314				4795.48389	807.63379	-327.71710																												
950	6.327																												4741.50537	796.55676	322.99911																			4809.71143	885.44446	-296.78540				4803.85742	808.10834	-328.93939																												
951	6.333																												4752.22363	796.00586	322.38470																			4817.81201	885.92285	-297.97852				4812.33252	808.59839	-330.17657																												
952	6.340																												4762.44336	794.78058	322.54041																			4825.66016	886.50647	-299.25708				4819.98242	809.25476	-331.46210																												
953	6.347																												4773.53516	794.14734	321.98007																			4833.28516	887.10602	-300.40170				4827.59229	809.82971	-332.59821																												
954	6.353																												4783.21289	793.00464	321.75055																			4840.78174	887.79346	-301.60690				4834.69238	810.52405	-333.67050																												
955	6.360																												4793.45215	792.47644	321.04077																			4847.55615	888.26978	-302.09082				4841.53613	811.11218	-334.65903																												
956	6.367																												4803.33838	791.32471	320.81668																			4854.33154	888.78973	-302.92841				4848.18018	811.71881	-335.56033																												
957	6.373																												4813.11035	790.64941	320.18256																			4860.90674	889.23505	-303.66129				4854.48193	812.28027	-336.34048																												
958	6.380																												4823.04736	789.85242	319.59955																			4867.38916	889.78833	-304.28180				4860.82764	812.73669	-337.06592																												
959	6.387																												4832.66211	789.13684	318.86639																			4873.67773	890.29913	-304.73865				4866.97510	813.08600	-337.62891																												
960	6.393																												4841.95264	788.50757	318.15680																			4880.11865	890.35358	-305.39697				4872.76270	813.47797	-338.16931																												
961	6.400																												4851.85645	787.73480	317.38095																			4886.36523	890.53064	-305.84726				4879.03027	813.57904	-338.39688																												
962	6.407																												4861.25391	787.19928	316.57849																			4892.68408	890.69238	-306.08716				4885.16943	813.56488	-338.56165																												
963	6.413																												4870.72070	786.42834	315.84534																									4892.00000	814.62390	-339.53506																												
964	6.420																												4880.11719	785.81396	314.99002																									4897.70264	813.02289	-338.59369																												
965	6.427																												4889.74463	785.01129	314.26428																									4904.13135	812.54956	-338.44827																												
966	6.433																												4899.03564	784.43500	313.20886																									4910.61914	811.94464	-338.11368																												
967	6.440																												4908.60254	783.67059	312.18655																									4917.33203	811.33154	-337.84555																												
968	6.447																												4917.83496	783.36749	310.87546																																																							
969	6.453																												4926.70215	782.38922	310.21527																																																							
970	6.460																												4936.71436	782.06360	308.88843																																																							
971	6.467																												4945.97070	781.26447	308.08667																																																							
972	6.473																												4955.29004	780.55139	307.12537																																																							
973	6.480																												4964.53809	780.03760	306.08563																																																							
974	6.487																												4974.06934	779.49805	305.11423																																																							
975	6.493																												4983.59668	779.00281	304.18997																																																							
976	6.500																												4993.19385	778.52301	303.29605																																																							
977	6.507																												5002.60107	778.09973	302.39639																																																							
978	6.513																												5012.06543	777.68622	301.34109																																																							
979	6.520																												5021.92920	777.27167	300.62656																																																							
980	6.527																												5031.31689	776.89746	299.78702																																																							
981	6.533																												5041.01758	776.42786	298.94495																																																							
982	6.540																												5050.72510	776.12115	298.16406																																																							
983	6.547																												5060.53223	775.65674	297.30438																																																							
984	6.553																												5070.27686	775.20831	296.51364																																																							
985	6.560																												5080.31006	774.84839	295.58957																																																							
986	6.567																												5090.23389	774.35760	294.71616																																																							
987	6.573																												5099.66113	773.99084	293.78723																																																							
988	6.580																												5109.74951	773.51642	292.84808																																																							
989	6.587																												5119.45654	773.30865	291.98550																																																							
990	6.593																												5128.90918	772.94147	291.02090																																																							
991	6.600																												5138.64893	772.58350	290.14795																																																							
992	6.607																												5148.22900	772.47034	289.11725																																																							
993	6.613																												5157.88428	772.23553	288.20242																																																							
994	6.620																												5167.04541	771.95557	287.36261																																																							
995	6.627																												5176.26611	771.85858	286.31866																																																							
996	6.633																												5185.50732	771.79230	285.50537																																																							
997	6.640																												5194.62109	771.68140	284.58817																																																							
998	6.647																												5203.11035	771.69104	283.69800																																																							
999	6.653																												5211.58154	771.74384	282.73056																																																							
1000	6.660																												5220.17383	771.77026	281.80728																																																							
1001	6.667																												5228.68945	771.85931	281.11636																																																							
1002	6.673																												5236.93018	771.90735	280.27756																																																							
1003	6.680																												5244.93701	772.02570	279.49063																																																							
1004	6.687																												5253.10449	771.97363	278.68796																																																							
1005	6.693																												5261.11377	771.91528	277.94073																																																							
1006	6.700																												5268.96582	771.92841	277.19449																																																							
1007	6.707																												5276.90625	771.90735	276.30234																																																							
1008	6.713																												5284.71387	771.77783	275.55533																																																							
1009	6.720																												5293.03857	771.48755	274.79489																																																							
1010	6.727																												5300.92773	771.40558	273.92117																																																							
1011	6.733																												5308.87354	771.12213	273.00375																																																							
1012	6.740																												5317.06689	770.73938	272.22778																																																							
1013	6.747																																																																																					
1014	6.753																																																																																					
1015	6.760																																																																																					
1016	6.767																																																																																					
1017	6.773																																																																																					
1018	6.780																																																																																					
1019	6.787																																																																																					
1020	6.793																																																																																					
1021	6.800																																																																																					
1022	6.807																																																																																					
1023	6.813																																																																																					
1024	6.820																																																																																					
1025	6.827																																																																																					
1026	6.833																																																																																					
1027	6.840																																																																																					
1028	6.847																																																																																					
1029	6.853																																																																																					
1030	6.860																																																																																					
1031	6.867																																																																																					
1032	6.873																																																																																					
1033	6.880																																																																																					
1034	6.887																																																																																					
1035	6.893																																																																																					
1036	6.900																																																																																					
1037	6.907																																																																																					
1038	6.913																																																																																					
1039	6.920																																																																																					
